<mxfile host="app.diagrams.net" modified="2023-07-12T12:09:58.162Z" agent="Mozilla/5.0 (X11; Linux x86_64) AppleWebKit/537.36 (KHTML, like Gecko) Chrome/112.0.0.0 Safari/537.36" version="21.6.2" etag="1AN_5hx_T21hZsS3M030" type="github">
  <diagram name="第 1 页" id="QyLCakGEYrvcKKxGy0-H">
    <mxGraphModel>
      <root>
        <mxCell id="0" />
        <mxCell id="1" parent="0" />
      </root>
    </mxGraphModel>
  </diagram>
</mxfile>
